<svg width="1920" height="3123" viewBox="0 0 1920 3123" fill="none" xmlns="http://www.w3.org/2000/svg">
<rect width="1920" height="3123" fill="#201F59"/>
<path d="M793.4 1293.3C793.4 1283.3 796.867 1274.83 803.8 1267.9C810.733 1260.97 819.2 1257.5 829.2 1257.5C839.2 1257.5 847.667 1260.97 854.6 1267.9C861.533 1274.77 865 1283.23 865 1293.3C865 1303.63 861.533 1312.37 854.6 1319.5C847.667 1326.63 839.2 1330.2 829.2 1330.2C819.2 1330.2 810.733 1326.63 803.8 1319.5C796.867 1312.37 793.4 1303.63 793.4 1293.3ZM800.6 1293.3C800.6 1301.83 803.367 1309.03 808.9 1314.9C814.5 1320.77 821.267 1323.7 829.2 1323.7C837.2 1323.7 843.967 1320.77 849.5 1314.9C855.033 1309.03 857.8 1301.83 857.8 1293.3C857.8 1285.03 855.033 1278.1 849.5 1272.5C843.967 1266.83 837.2 1264 829.2 1264C821.267 1264 814.5 1266.83 808.9 1272.5C803.367 1278.1 800.6 1285.03 800.6 1293.3ZM908.734 1268.9C906.134 1271.03 903.034 1272.1 899.434 1272.1C895.834 1272.1 892.734 1271.03 890.134 1268.9C887.534 1266.77 886.234 1263.9 886.234 1260.3V1258.6H892.134V1260.1C892.134 1262.23 892.834 1263.93 894.234 1265.2C895.7 1266.4 897.434 1267 899.434 1267C901.434 1267 903.167 1266.4 904.634 1265.2C906.1 1263.93 906.834 1262.2 906.834 1260V1258.6H912.634V1260.3C912.634 1263.9 911.334 1266.77 908.734 1268.9ZM878.034 1329V1278.7H884.634V1311.7C884.634 1316.3 884.534 1318.8 884.334 1319.2H884.534C884.8 1318.73 886.534 1316.23 889.734 1311.7L914.434 1278.7H920.934V1329H914.234V1295.9C914.234 1295.03 914.234 1294.03 914.234 1292.9C914.3 1291.77 914.367 1290.8 914.434 1290C914.5 1289.13 914.534 1288.67 914.534 1288.6H914.334C914.334 1288.73 914.034 1289.2 913.434 1290C912.9 1290.8 912.167 1291.8 911.234 1293C910.367 1294.2 909.7 1295.17 909.234 1295.9L884.534 1329H878.034ZM936.416 1303.7V1297.5H964.816V1303.7H936.416ZM1005.58 1267.2V1258.6H1011.78V1267.2H1005.58ZM990.48 1267.2V1258.6H996.58V1267.2H990.48ZM976.88 1303.9C976.88 1295.9 979.246 1289.5 983.98 1284.7C988.78 1279.9 994.713 1277.5 1001.78 1277.5C1008.45 1277.5 1013.61 1279.73 1017.28 1284.2C1020.95 1288.6 1022.78 1294.1 1022.78 1300.7C1022.78 1301.5 1022.71 1302.63 1022.58 1304.1H983.98C984.113 1310.3 986.046 1315.17 989.78 1318.7C993.513 1322.23 998.08 1324 1003.48 1324C1009.28 1324 1014.38 1322 1018.78 1318L1021.88 1323.2C1019.55 1325.33 1016.68 1327.03 1013.28 1328.3C1009.95 1329.57 1006.61 1330.2 1003.28 1330.2C995.746 1330.2 989.446 1327.73 984.38 1322.8C979.38 1317.87 976.88 1311.57 976.88 1303.9ZM984.28 1298.7H1015.88C1015.68 1293.7 1014.25 1289.87 1011.58 1287.2C1008.91 1284.47 1005.58 1283.1 1001.58 1283.1C997.246 1283.1 993.48 1284.47 990.28 1287.2C987.08 1289.93 985.08 1293.77 984.28 1298.7ZM1066.25 1268.9C1063.65 1271.03 1060.55 1272.1 1056.95 1272.1C1053.35 1272.1 1050.25 1271.03 1047.65 1268.9C1045.05 1266.77 1043.75 1263.9 1043.75 1260.3V1258.6H1049.65V1260.1C1049.65 1262.23 1050.35 1263.93 1051.75 1265.2C1053.22 1266.4 1054.95 1267 1056.95 1267C1058.95 1267 1060.69 1266.4 1062.15 1265.2C1063.62 1263.93 1064.35 1262.2 1064.35 1260V1258.6H1070.15V1260.3C1070.15 1263.9 1068.85 1266.77 1066.25 1268.9ZM1035.55 1329V1278.7H1042.15V1311.7C1042.15 1316.3 1042.05 1318.8 1041.85 1319.2H1042.05C1042.32 1318.73 1044.05 1316.23 1047.25 1311.7L1071.95 1278.7H1078.45V1329H1071.75V1295.9C1071.75 1295.03 1071.75 1294.03 1071.75 1292.9C1071.82 1291.77 1071.89 1290.8 1071.95 1290C1072.02 1289.13 1072.05 1288.67 1072.05 1288.6H1071.85C1071.85 1288.73 1071.55 1289.2 1070.95 1290C1070.42 1290.8 1069.69 1291.8 1068.75 1293C1067.89 1294.2 1067.22 1295.17 1066.75 1295.9L1042.05 1329H1035.55ZM1093.94 1329V1320.7H1102.14V1329H1093.94ZM1116.98 1329V1320.7H1125.18V1329H1116.98Z" fill="white"/>
<path d="M538.87 1553.22C540.177 1554.34 541.623 1554.9 543.21 1554.9C546.01 1554.9 548.297 1552.8 550.07 1548.6L552.59 1542.79L538.1 1508H541.25L552.8 1535.93L554.06 1539.22H554.2C554.527 1538.15 554.923 1537.05 555.39 1535.93L566.94 1508H570.09L552.1 1551.19C550.28 1555.53 547.317 1557.7 543.21 1557.7C542.23 1557.7 541.25 1557.54 540.27 1557.21C539.337 1556.88 538.66 1556.56 538.24 1556.23L537.54 1555.74L538.87 1553.22ZM595.752 1543V1508H598.692V1523.61H621.582V1508H624.522V1543H621.582V1526.34H598.692V1543H595.752ZM633.479 1533.69C633.479 1532.06 633.783 1530.59 634.389 1529.28C634.996 1527.97 635.743 1526.92 636.629 1526.13C637.516 1525.29 638.659 1524.57 640.059 1523.96C641.506 1523.35 642.813 1522.91 643.979 1522.63C645.146 1522.35 646.546 1522.14 648.179 1522C649.813 1521.81 651.073 1521.72 651.959 1521.72C652.846 1521.67 653.919 1521.65 655.179 1521.65H657.489V1520.46C657.489 1513.51 654.293 1510.03 647.899 1510.03C644.166 1510.03 640.829 1511.15 637.889 1513.39L636.209 1511.01C637.563 1509.84 639.313 1508.91 641.459 1508.21C643.606 1507.51 645.799 1507.16 648.039 1507.16C652.099 1507.16 655.179 1508.28 657.279 1510.52C659.379 1512.76 660.429 1516.05 660.429 1520.39V1543H657.489V1538.38L657.769 1535.23H657.629C656.696 1537.66 655.133 1539.71 652.939 1541.39C650.793 1543.02 648.273 1543.84 645.379 1543.84C642.206 1543.84 639.429 1542.98 637.049 1541.25C634.669 1539.48 633.479 1536.96 633.479 1533.69ZM636.559 1533.48C636.559 1535.49 637.353 1537.26 638.939 1538.8C640.526 1540.34 642.719 1541.11 645.519 1541.11C649.113 1541.11 652.006 1539.59 654.199 1536.56C656.393 1533.48 657.489 1530.05 657.489 1526.27V1524.38H655.249C653.803 1524.38 652.613 1524.4 651.679 1524.45C650.793 1524.45 649.486 1524.54 647.759 1524.73C646.079 1524.87 644.679 1525.15 643.559 1525.57C642.486 1525.94 641.343 1526.46 640.129 1527.11C638.963 1527.72 638.076 1528.58 637.469 1529.7C636.863 1530.77 636.559 1532.03 636.559 1533.48ZM674.976 1538.8C671.523 1535.39 669.796 1530.98 669.796 1525.57C669.796 1520.16 671.546 1515.75 675.046 1512.34C678.593 1508.89 682.863 1507.16 687.856 1507.16C690.19 1507.16 692.476 1507.58 694.716 1508.42C697.003 1509.26 698.893 1510.5 700.386 1512.13L698.566 1514.51C697.306 1513.16 695.696 1512.08 693.736 1511.29C691.823 1510.45 689.863 1510.03 687.856 1510.03C683.656 1510.03 680.11 1511.48 677.216 1514.37C674.323 1517.22 672.876 1520.95 672.876 1525.57C672.876 1530.14 674.323 1533.85 677.216 1536.7C680.11 1539.55 683.656 1540.97 687.856 1540.97C690.05 1540.97 692.196 1540.53 694.296 1539.64C696.396 1538.75 698.146 1537.52 699.546 1535.93L701.086 1538.38C699.593 1540.06 697.656 1541.39 695.276 1542.37C692.943 1543.35 690.47 1543.84 687.856 1543.84C682.77 1543.84 678.476 1542.16 674.976 1538.8ZM727.549 1543V1508H738.539C742.132 1508 744.932 1508.77 746.939 1510.31C748.992 1511.8 750.019 1514 750.019 1516.89C750.019 1520.76 748.152 1523.33 744.419 1524.59V1524.73C746.706 1525.15 748.526 1526.15 749.879 1527.74C751.232 1529.28 751.909 1531.15 751.909 1533.34C751.909 1536.23 750.812 1538.57 748.619 1540.34C746.426 1542.11 743.369 1543 739.449 1543H727.549ZM730.489 1523.54H738.679C744.139 1523.54 746.869 1521.32 746.869 1516.89C746.869 1512.74 744.046 1510.66 738.399 1510.66H730.489V1523.54ZM730.489 1540.27H739.169C745.609 1540.27 748.829 1537.96 748.829 1533.34C748.829 1531.01 747.989 1529.26 746.309 1528.09C744.629 1526.88 742.226 1526.27 739.099 1526.27H730.489V1540.27ZM759.14 1525.29C759.14 1520.2 760.89 1515.91 764.39 1512.41C767.937 1508.91 772.23 1507.16 777.27 1507.16C782.31 1507.16 786.58 1508.91 790.08 1512.41C793.627 1515.91 795.4 1520.2 795.4 1525.29C795.4 1530.47 793.627 1534.86 790.08 1538.45C786.58 1542.04 782.31 1543.84 777.27 1543.84C772.23 1543.84 767.937 1542.04 764.39 1538.45C760.89 1534.86 759.14 1530.47 759.14 1525.29ZM762.22 1525.29C762.22 1529.72 763.667 1533.46 766.56 1536.49C769.5 1539.48 773.07 1540.97 777.27 1540.97C781.47 1540.97 785.017 1539.48 787.91 1536.49C790.85 1533.46 792.32 1529.72 792.32 1525.29C792.32 1521 790.85 1517.38 787.91 1514.44C785.017 1511.5 781.47 1510.03 777.27 1510.03C773.07 1510.03 769.5 1511.5 766.56 1514.44C763.667 1517.38 762.22 1521 762.22 1525.29ZM800.47 1538.8L802.36 1536.56C805.02 1539.55 808.24 1541.04 812.02 1541.04C814.54 1541.04 816.757 1540.39 818.67 1539.08C820.583 1537.73 821.54 1535.79 821.54 1533.27C821.54 1530.98 820.7 1529.23 819.02 1528.02C817.34 1526.81 814.937 1526.2 811.81 1526.2H807.61V1523.47H811.39C814.19 1523.47 816.36 1522.91 817.9 1521.79C819.44 1520.62 820.21 1518.94 820.21 1516.75C820.21 1514.51 819.463 1512.83 817.97 1511.71C816.477 1510.59 814.517 1510.03 812.09 1510.03C808.73 1510.03 805.86 1511.13 803.48 1513.32L801.73 1510.94C804.623 1508.42 808.17 1507.16 812.37 1507.16C815.637 1507.16 818.273 1507.95 820.28 1509.54C822.333 1511.13 823.36 1513.44 823.36 1516.47C823.36 1520.48 821.47 1523.17 817.69 1524.52V1524.66C819.837 1525.13 821.517 1526.08 822.73 1527.53C823.99 1528.98 824.62 1530.87 824.62 1533.2C824.62 1536.56 823.383 1539.17 820.91 1541.04C818.437 1542.91 815.473 1543.84 812.02 1543.84C807.587 1543.84 803.737 1542.16 800.47 1538.8ZM834.326 1543V1508H837.266V1523.61H860.156V1508H863.096V1543H860.156V1526.34H837.266V1543H834.326ZM875.274 1543V1508H878.214V1532.92L878.004 1538.59H878.144C879.777 1536.26 881.107 1534.37 882.134 1532.92L901.244 1508H903.974V1543H901.034V1518.01L901.244 1512.55H901.104C899.47 1514.74 898.14 1516.56 897.114 1518.01L878.004 1543H875.274ZM916.153 1543V1508H919.093V1523.47H925.183L936.663 1508H940.373L927.703 1524.66V1524.8L941.773 1543H937.923L925.183 1526.2H919.093V1543H916.153ZM944.412 1543.28V1540.55C947.585 1540.04 949.848 1537.96 951.202 1534.32C952.555 1530.63 953.232 1525.34 953.232 1518.43V1508H972.832V1543H969.892V1510.73H956.172V1518.43C956.172 1526.78 955.215 1532.9 953.302 1536.77C951.388 1540.64 948.425 1542.81 944.412 1543.28ZM984.99 1543V1508H987.93V1532.92L987.72 1538.59H987.86C989.494 1536.26 990.824 1534.37 991.85 1532.92L1010.96 1508H1013.69V1543H1010.75V1518.01L1010.96 1512.55H1010.82C1009.19 1514.74 1007.86 1516.56 1006.83 1518.01L987.72 1543H984.99ZM1043.37 1543V1508H1071.44V1543H1068.5V1510.73H1046.31V1543H1043.37ZM1083.63 1557V1508H1086.57V1512.2L1086.36 1515H1086.5C1087.53 1512.57 1089.16 1510.66 1091.4 1509.26C1093.64 1507.86 1096.21 1507.16 1099.1 1507.16C1103.72 1507.16 1107.39 1508.84 1110.09 1512.2C1112.85 1515.56 1114.22 1519.99 1114.22 1525.5C1114.22 1531.01 1112.78 1535.44 1109.88 1538.8C1106.99 1542.16 1103.26 1543.84 1098.68 1543.84C1096.02 1543.84 1093.6 1543.14 1091.4 1541.74C1089.21 1540.34 1087.55 1538.4 1086.43 1535.93H1086.29C1086.48 1536.77 1086.57 1537.8 1086.57 1539.01V1557H1083.63ZM1086.5 1525.57C1086.5 1529.72 1087.6 1533.34 1089.79 1536.42C1091.99 1539.45 1094.95 1540.97 1098.68 1540.97C1102.23 1540.97 1105.19 1539.59 1107.57 1536.84C1109.95 1534.04 1111.14 1530.26 1111.14 1525.5C1111.14 1520.83 1110 1517.1 1107.71 1514.3C1105.47 1511.45 1102.56 1510.03 1098.96 1510.03C1095.42 1510.03 1092.45 1511.34 1090.07 1513.95C1087.69 1516.52 1086.5 1520.39 1086.5 1525.57ZM1121.58 1525.29C1121.58 1520.2 1123.33 1515.91 1126.83 1512.41C1130.38 1508.91 1134.67 1507.16 1139.71 1507.16C1144.75 1507.16 1149.02 1508.91 1152.52 1512.41C1156.07 1515.91 1157.84 1520.2 1157.84 1525.29C1157.84 1530.47 1156.07 1534.86 1152.52 1538.45C1149.02 1542.04 1144.75 1543.84 1139.71 1543.84C1134.67 1543.84 1130.38 1542.04 1126.83 1538.45C1123.33 1534.86 1121.58 1530.47 1121.58 1525.29ZM1124.66 1525.29C1124.66 1529.72 1126.11 1533.46 1129 1536.49C1131.94 1539.48 1135.51 1540.97 1139.71 1540.97C1143.91 1540.97 1147.46 1539.48 1150.35 1536.49C1153.29 1533.46 1154.76 1529.72 1154.76 1525.29C1154.76 1521 1153.29 1517.38 1150.35 1514.44C1147.46 1511.5 1143.91 1510.03 1139.71 1510.03C1135.51 1510.03 1131.94 1511.5 1129 1514.44C1126.11 1517.38 1124.66 1521 1124.66 1525.29ZM1165.97 1523.47C1165.97 1520.44 1166.13 1517.82 1166.46 1515.63C1166.79 1513.44 1167.39 1511.29 1168.28 1509.19C1169.21 1507.04 1170.57 1505.15 1172.34 1503.52C1174.11 1501.89 1176.35 1500.39 1179.06 1499.04L1192.43 1492.39L1193.76 1494.98L1180.18 1501.7C1176.03 1503.75 1173.11 1506.2 1171.43 1509.05C1169.8 1511.85 1168.82 1515.44 1168.49 1519.83H1168.63C1171.38 1514.18 1176 1511.36 1182.49 1511.36C1186.78 1511.36 1190.31 1512.81 1193.06 1515.7C1195.81 1518.59 1197.19 1522.54 1197.19 1527.53C1197.19 1532.34 1195.74 1536.26 1192.85 1539.29C1190 1542.32 1186.32 1543.84 1181.79 1543.84C1176.47 1543.84 1172.5 1541.97 1169.89 1538.24C1167.28 1534.51 1165.97 1529.58 1165.97 1523.47ZM1169.47 1527.39C1169.47 1531.59 1170.64 1534.93 1172.97 1537.4C1175.35 1539.83 1178.29 1541.04 1181.79 1541.04C1185.29 1541.04 1188.21 1539.83 1190.54 1537.4C1192.92 1534.97 1194.11 1531.71 1194.11 1527.6C1194.11 1523.49 1192.94 1520.23 1190.61 1517.8C1188.32 1515.37 1185.5 1514.16 1182.14 1514.16C1178.41 1514.16 1175.35 1515.44 1172.97 1518.01C1170.64 1520.53 1169.47 1523.66 1169.47 1527.39ZM1201.85 1543.28V1540.55C1205.03 1540.04 1207.29 1537.96 1208.64 1534.32C1210 1530.63 1210.67 1525.34 1210.67 1518.43V1508H1230.27V1543H1227.33V1510.73H1213.61V1518.43C1213.61 1526.78 1212.66 1532.9 1210.74 1536.77C1208.83 1540.64 1205.87 1542.81 1201.85 1543.28ZM1239.98 1525.57C1239.98 1519.88 1241.64 1515.4 1244.95 1512.13C1248.27 1508.82 1252.28 1507.16 1256.99 1507.16C1261.52 1507.16 1265.02 1508.7 1267.49 1511.78C1270.01 1514.81 1271.27 1518.59 1271.27 1523.12C1271.27 1523.54 1271.23 1524.17 1271.13 1525.01H1243.06C1243.06 1529.91 1244.49 1533.81 1247.33 1536.7C1250.23 1539.55 1253.8 1540.97 1258.04 1540.97C1262.34 1540.97 1265.95 1539.5 1268.89 1536.56L1270.5 1539.01C1268.96 1540.46 1267.05 1541.62 1264.76 1542.51C1262.52 1543.4 1260.28 1543.84 1258.04 1543.84C1252.96 1543.84 1248.66 1542.16 1245.16 1538.8C1241.71 1535.39 1239.98 1530.98 1239.98 1525.57ZM1243.27 1522.28H1268.19C1268.01 1518.22 1266.86 1515.14 1264.76 1513.04C1262.66 1510.94 1260.05 1509.89 1256.92 1509.89C1253.52 1509.89 1250.53 1510.99 1247.96 1513.18C1245.44 1515.33 1243.88 1518.36 1243.27 1522.28ZM1279.52 1543L1282.32 1508H1285.12L1296.95 1531.17L1299.33 1536.28H1299.47C1300.26 1534.41 1301.06 1532.71 1301.85 1531.17L1313.75 1508H1316.55L1319.35 1543H1316.41L1314.45 1518.71L1314.38 1512.69H1314.24C1313.77 1514 1313 1515.68 1311.93 1517.73L1300.94 1539.15H1297.93L1286.94 1517.87L1284.63 1512.69H1284.49C1284.54 1515.58 1284.51 1517.59 1284.42 1518.71L1282.46 1543H1279.52ZM1359.47 1543V1508H1362.41V1543H1359.47ZM1330.21 1543V1508H1333.15V1522H1341.2C1342.69 1522 1344.07 1522.16 1345.33 1522.49C1346.63 1522.82 1347.89 1523.35 1349.11 1524.1C1350.32 1524.8 1351.28 1525.87 1351.98 1527.32C1352.68 1528.77 1353.03 1530.52 1353.03 1532.57C1353.03 1535.74 1352 1538.29 1349.95 1540.2C1347.94 1542.07 1344.98 1543 1341.06 1543H1330.21ZM1333.15 1540.27H1341.06C1346.98 1540.27 1349.95 1537.7 1349.95 1532.57C1349.95 1527.34 1347.03 1524.73 1341.2 1524.73H1333.15V1540.27Z" fill="white"/>
<path d="M353.09 1627V1592H356.03V1607.61H378.92V1592H381.86V1627H378.92V1610.34H356.03V1627H353.09ZM391.587 1609.57C391.587 1603.88 393.244 1599.4 396.557 1596.13C399.871 1592.82 403.884 1591.16 408.597 1591.16C413.124 1591.16 416.624 1592.7 419.097 1595.78C421.617 1598.81 422.877 1602.59 422.877 1607.12C422.877 1607.54 422.831 1608.17 422.737 1609.01H394.667C394.667 1613.91 396.091 1617.81 398.937 1620.7C401.831 1623.55 405.401 1624.97 409.647 1624.97C413.941 1624.97 417.557 1623.5 420.497 1620.56L422.107 1623.01C420.567 1624.46 418.654 1625.62 416.367 1626.51C414.127 1627.4 411.887 1627.84 409.647 1627.84C404.561 1627.84 400.267 1626.16 396.767 1622.8C393.314 1619.39 391.587 1614.98 391.587 1609.57ZM394.877 1606.28H419.797C419.611 1602.22 418.467 1599.14 416.367 1597.04C414.267 1594.94 411.654 1593.89 408.527 1593.89C405.121 1593.89 402.134 1594.99 399.567 1597.18C397.047 1599.33 395.484 1602.36 394.877 1606.28ZM449.955 1627V1592H478.025V1627H475.085V1594.73H452.895V1627H449.955ZM487.769 1609.57C487.769 1603.88 489.426 1599.4 492.739 1596.13C496.052 1592.82 500.066 1591.16 504.779 1591.16C509.306 1591.16 512.806 1592.7 515.279 1595.78C517.799 1598.81 519.059 1602.59 519.059 1607.12C519.059 1607.54 519.012 1608.17 518.919 1609.01H490.849C490.849 1613.91 492.272 1617.81 495.119 1620.7C498.012 1623.55 501.582 1624.97 505.829 1624.97C510.122 1624.97 513.739 1623.5 516.679 1620.56L518.289 1623.01C516.749 1624.46 514.836 1625.62 512.549 1626.51C510.309 1627.4 508.069 1627.84 505.829 1627.84C500.742 1627.84 496.449 1626.16 492.949 1622.8C489.496 1619.39 487.769 1614.98 487.769 1609.57ZM491.059 1606.28H515.979C515.792 1602.22 514.649 1599.14 512.549 1597.04C510.449 1594.94 507.836 1593.89 504.709 1593.89C501.302 1593.89 498.316 1594.99 495.749 1597.18C493.229 1599.33 491.666 1602.36 491.059 1606.28ZM528.637 1641V1592H531.577V1596.2L531.367 1599H531.507C532.534 1596.57 534.167 1594.66 536.407 1593.26C538.647 1591.86 541.214 1591.16 544.107 1591.16C548.727 1591.16 552.39 1592.84 555.097 1596.2C557.85 1599.56 559.227 1603.99 559.227 1609.5C559.227 1615.01 557.78 1619.44 554.887 1622.8C551.994 1626.16 548.26 1627.84 543.687 1627.84C541.027 1627.84 538.6 1627.14 536.407 1625.74C534.214 1624.34 532.557 1622.4 531.437 1619.93H531.297C531.484 1620.77 531.577 1621.8 531.577 1623.01V1641H528.637ZM531.507 1609.57C531.507 1613.72 532.604 1617.34 534.797 1620.42C536.99 1623.45 539.954 1624.97 543.687 1624.97C547.234 1624.97 550.197 1623.59 552.577 1620.84C554.957 1618.04 556.147 1614.26 556.147 1609.5C556.147 1604.83 555.004 1601.1 552.717 1598.3C550.477 1595.45 547.56 1594.03 543.967 1594.03C540.42 1594.03 537.457 1595.34 535.077 1597.95C532.697 1600.52 531.507 1604.39 531.507 1609.57ZM566.656 1609.57C566.656 1603.88 568.312 1599.4 571.626 1596.13C574.939 1592.82 578.952 1591.16 583.666 1591.16C588.192 1591.16 591.692 1592.7 594.166 1595.78C596.686 1598.81 597.946 1602.59 597.946 1607.12C597.946 1607.54 597.899 1608.17 597.806 1609.01H569.736C569.736 1613.91 571.159 1617.81 574.006 1620.7C576.899 1623.55 580.469 1624.97 584.716 1624.97C589.009 1624.97 592.626 1623.5 595.566 1620.56L597.176 1623.01C595.636 1624.46 593.722 1625.62 591.436 1626.51C589.196 1627.4 586.956 1627.84 584.716 1627.84C579.629 1627.84 575.336 1626.16 571.836 1622.8C568.382 1619.39 566.656 1614.98 566.656 1609.57ZM569.946 1606.28H594.866C594.679 1602.22 593.536 1599.14 591.436 1597.04C589.336 1594.94 586.722 1593.89 583.596 1593.89C580.189 1593.89 577.202 1594.99 574.636 1597.18C572.116 1599.33 570.552 1602.36 569.946 1606.28ZM602.77 1627L615.09 1609.15V1609.01L603.96 1592H607.39L617.61 1607.68H623.91V1592H626.85V1607.68H633.15L643.37 1592H646.8L635.67 1609.01V1609.15L647.99 1627H644.28L633.01 1610.41H626.85V1627H623.91V1610.41H617.75L606.48 1627H602.77ZM655.717 1627V1592H658.657V1616.92L658.447 1622.59H658.587C660.22 1620.26 661.55 1618.37 662.577 1616.92L681.687 1592H684.417V1627H681.477V1602.01L681.687 1596.55H681.547C679.914 1598.74 678.584 1600.56 677.557 1602.01L658.447 1627H655.717ZM696.596 1627V1592H707.586C711.179 1592 713.979 1592.77 715.986 1594.31C718.039 1595.8 719.066 1598 719.066 1600.89C719.066 1604.76 717.199 1607.33 713.466 1608.59V1608.73C715.753 1609.15 717.573 1610.15 718.926 1611.74C720.279 1613.28 720.956 1615.15 720.956 1617.34C720.956 1620.23 719.859 1622.57 717.666 1624.34C715.473 1626.11 712.416 1627 708.496 1627H696.596ZM699.536 1607.54H707.726C713.186 1607.54 715.916 1605.32 715.916 1600.89C715.916 1596.74 713.093 1594.66 707.446 1594.66H699.536V1607.54ZM699.536 1624.27H708.216C714.656 1624.27 717.876 1621.96 717.876 1617.34C717.876 1615.01 717.036 1613.26 715.356 1612.09C713.676 1610.88 711.273 1610.27 708.146 1610.27H699.536V1624.27ZM727.487 1617.69C727.487 1616.06 727.791 1614.59 728.397 1613.28C729.004 1611.97 729.751 1610.92 730.637 1610.13C731.524 1609.29 732.667 1608.57 734.067 1607.96C735.514 1607.35 736.821 1606.91 737.987 1606.63C739.154 1606.35 740.554 1606.14 742.187 1606C743.821 1605.81 745.081 1605.72 745.967 1605.72C746.854 1605.67 747.927 1605.65 749.187 1605.65H751.497V1604.46C751.497 1597.51 748.301 1594.03 741.907 1594.03C738.174 1594.03 734.837 1595.15 731.897 1597.39L730.217 1595.01C731.571 1593.84 733.321 1592.91 735.467 1592.21C737.614 1591.51 739.807 1591.16 742.047 1591.16C746.107 1591.16 749.187 1592.28 751.287 1594.52C753.387 1596.76 754.437 1600.05 754.437 1604.39V1627H751.497V1622.38L751.777 1619.23H751.637C750.704 1621.66 749.141 1623.71 746.947 1625.39C744.801 1627.02 742.281 1627.84 739.387 1627.84C736.214 1627.84 733.437 1626.98 731.057 1625.25C728.677 1623.48 727.487 1620.96 727.487 1617.69ZM730.567 1617.48C730.567 1619.49 731.361 1621.26 732.947 1622.8C734.534 1624.34 736.727 1625.11 739.527 1625.11C743.121 1625.11 746.014 1623.59 748.207 1620.56C750.401 1617.48 751.497 1614.05 751.497 1610.27V1608.38H749.257C747.811 1608.38 746.621 1608.4 745.687 1608.45C744.801 1608.45 743.494 1608.54 741.767 1608.73C740.087 1608.87 738.687 1609.15 737.567 1609.57C736.494 1609.94 735.351 1610.46 734.137 1611.11C732.971 1611.72 732.084 1612.58 731.477 1613.7C730.871 1614.77 730.567 1616.03 730.567 1617.48ZM786.414 1584.86C784.781 1586.21 782.844 1586.89 780.604 1586.89C778.364 1586.89 776.427 1586.21 774.794 1584.86C773.161 1583.46 772.344 1581.59 772.344 1579.26V1578H775.284V1579.05C775.284 1580.64 775.797 1581.87 776.824 1582.76C777.851 1583.65 779.111 1584.09 780.604 1584.09C782.051 1584.09 783.311 1583.65 784.384 1582.76C785.457 1581.83 785.994 1580.57 785.994 1578.98V1578H788.864V1579.26C788.864 1581.59 788.047 1583.46 786.414 1584.86ZM766.254 1627V1592H769.194V1616.92L768.984 1622.59H769.124C770.757 1620.26 772.087 1618.37 773.114 1616.92L792.224 1592H794.954V1627H792.014V1602.01L792.224 1596.55H792.084C790.451 1598.74 789.121 1600.56 788.094 1602.01L768.984 1627H766.254ZM816.093 1627V1594.73H802.793V1592H832.333V1594.73H819.033V1627H816.093ZM835.923 1609.57C835.923 1603.88 837.58 1599.4 840.893 1596.13C844.207 1592.82 848.22 1591.16 852.933 1591.16C857.46 1591.16 860.96 1592.7 863.433 1595.78C865.953 1598.81 867.213 1602.59 867.213 1607.12C867.213 1607.54 867.167 1608.17 867.073 1609.01H839.003C839.003 1613.91 840.427 1617.81 843.273 1620.7C846.167 1623.55 849.737 1624.97 853.983 1624.97C858.277 1624.97 861.893 1623.5 864.833 1620.56L866.443 1623.01C864.903 1624.46 862.99 1625.62 860.703 1626.51C858.463 1627.4 856.223 1627.84 853.983 1627.84C848.897 1627.84 844.603 1626.16 841.103 1622.8C837.65 1619.39 835.923 1614.98 835.923 1609.57ZM839.213 1606.28H864.133C863.947 1602.22 862.803 1599.14 860.703 1597.04C858.603 1594.94 855.99 1593.89 852.863 1593.89C849.457 1593.89 846.47 1594.99 843.903 1597.18C841.383 1599.33 839.82 1602.36 839.213 1606.28ZM874.341 1633.58L878.051 1622.73H881.971L877.281 1633.58H874.341ZM914.726 1622.8C911.273 1619.39 909.546 1614.98 909.546 1609.57C909.546 1604.16 911.296 1599.75 914.796 1596.34C918.343 1592.89 922.613 1591.16 927.606 1591.16C929.94 1591.16 932.226 1591.58 934.466 1592.42C936.753 1593.26 938.643 1594.5 940.136 1596.13L938.316 1598.51C937.056 1597.16 935.446 1596.08 933.486 1595.29C931.573 1594.45 929.613 1594.03 927.606 1594.03C923.406 1594.03 919.86 1595.48 916.966 1598.37C914.073 1601.22 912.626 1604.95 912.626 1609.57C912.626 1614.14 914.073 1617.85 916.966 1620.7C919.86 1623.55 923.406 1624.97 927.606 1624.97C929.8 1624.97 931.946 1624.53 934.046 1623.64C936.146 1622.75 937.896 1621.52 939.296 1619.93L940.836 1622.38C939.343 1624.06 937.406 1625.39 935.026 1626.37C932.693 1627.35 930.22 1627.84 927.606 1627.84C922.52 1627.84 918.226 1626.16 914.726 1622.8ZM949.799 1627V1592H952.739V1607.47H958.829L970.309 1592H974.019L961.349 1608.66V1608.8L975.419 1627H971.569L958.829 1610.2H952.739V1627H949.799ZM978.724 1609.29C978.724 1604.2 980.474 1599.91 983.974 1596.41C987.521 1592.91 991.814 1591.16 996.854 1591.16C1001.89 1591.16 1006.16 1592.91 1009.66 1596.41C1013.21 1599.91 1014.98 1604.2 1014.98 1609.29C1014.98 1614.47 1013.21 1618.86 1009.66 1622.45C1006.16 1626.04 1001.89 1627.84 996.854 1627.84C991.814 1627.84 987.521 1626.04 983.974 1622.45C980.474 1618.86 978.724 1614.47 978.724 1609.29ZM981.804 1609.29C981.804 1613.72 983.251 1617.46 986.144 1620.49C989.084 1623.48 992.654 1624.97 996.854 1624.97C1001.05 1624.97 1004.6 1623.48 1007.49 1620.49C1010.43 1617.46 1011.9 1613.72 1011.9 1609.29C1011.9 1605 1010.43 1601.38 1007.49 1598.44C1004.6 1595.5 1001.05 1594.03 996.854 1594.03C992.654 1594.03 989.084 1595.5 986.144 1598.44C983.251 1601.38 981.804 1605 981.804 1609.29ZM1024.65 1641V1592H1027.59V1596.2L1027.38 1599H1027.52C1028.55 1596.57 1030.18 1594.66 1032.42 1593.26C1034.66 1591.86 1037.23 1591.16 1040.12 1591.16C1044.74 1591.16 1048.41 1592.84 1051.11 1596.2C1053.87 1599.56 1055.24 1603.99 1055.24 1609.5C1055.24 1615.01 1053.8 1619.44 1050.9 1622.8C1048.01 1626.16 1044.28 1627.84 1039.7 1627.84C1037.04 1627.84 1034.62 1627.14 1032.42 1625.74C1030.23 1624.34 1028.57 1622.4 1027.45 1619.93H1027.31C1027.5 1620.77 1027.59 1621.8 1027.59 1623.01V1641H1024.65ZM1027.52 1609.57C1027.52 1613.72 1028.62 1617.34 1030.81 1620.42C1033.01 1623.45 1035.97 1624.97 1039.7 1624.97C1043.25 1624.97 1046.21 1623.59 1048.59 1620.84C1050.97 1618.04 1052.16 1614.26 1052.16 1609.5C1052.16 1604.83 1051.02 1601.1 1048.73 1598.3C1046.49 1595.45 1043.58 1594.03 1039.98 1594.03C1036.44 1594.03 1033.47 1595.34 1031.09 1597.95C1028.71 1600.52 1027.52 1604.39 1027.52 1609.57ZM1062.6 1609.29C1062.6 1604.2 1064.35 1599.91 1067.85 1596.41C1071.4 1592.91 1075.69 1591.16 1080.73 1591.16C1085.77 1591.16 1090.04 1592.91 1093.54 1596.41C1097.09 1599.91 1098.86 1604.2 1098.86 1609.29C1098.86 1614.47 1097.09 1618.86 1093.54 1622.45C1090.04 1626.04 1085.77 1627.84 1080.73 1627.84C1075.69 1627.84 1071.4 1626.04 1067.85 1622.45C1064.35 1618.86 1062.6 1614.47 1062.6 1609.29ZM1065.68 1609.29C1065.68 1613.72 1067.13 1617.46 1070.02 1620.49C1072.96 1623.48 1076.53 1624.97 1080.73 1624.97C1084.93 1624.97 1088.48 1623.48 1091.37 1620.49C1094.31 1617.46 1095.78 1613.72 1095.78 1609.29C1095.78 1605 1094.31 1601.38 1091.37 1598.44C1088.48 1595.5 1084.93 1594.03 1080.73 1594.03C1076.53 1594.03 1072.96 1595.5 1070.02 1598.44C1067.13 1601.38 1065.68 1605 1065.68 1609.29ZM1126.03 1627V1592H1137.02C1140.61 1592 1143.41 1592.77 1145.42 1594.31C1147.47 1595.8 1148.5 1598 1148.5 1600.89C1148.5 1604.76 1146.63 1607.33 1142.9 1608.59V1608.73C1145.19 1609.15 1147.01 1610.15 1148.36 1611.74C1149.71 1613.28 1150.39 1615.15 1150.39 1617.34C1150.39 1620.23 1149.29 1622.57 1147.1 1624.34C1144.91 1626.11 1141.85 1627 1137.93 1627H1126.03ZM1128.97 1607.54H1137.16C1142.62 1607.54 1145.35 1605.32 1145.35 1600.89C1145.35 1596.74 1142.53 1594.66 1136.88 1594.66H1128.97V1607.54ZM1128.97 1624.27H1137.65C1144.09 1624.27 1147.31 1621.96 1147.31 1617.34C1147.31 1615.01 1146.47 1613.26 1144.79 1612.09C1143.11 1610.88 1140.71 1610.27 1137.58 1610.27H1128.97V1624.27ZM1162.87 1622.8C1159.42 1619.39 1157.69 1614.98 1157.69 1609.57C1157.69 1604.16 1159.44 1599.75 1162.94 1596.34C1166.49 1592.89 1170.76 1591.16 1175.75 1591.16C1178.08 1591.16 1180.37 1591.58 1182.61 1592.42C1184.9 1593.26 1186.79 1594.5 1188.28 1596.13L1186.46 1598.51C1185.2 1597.16 1183.59 1596.08 1181.63 1595.29C1179.72 1594.45 1177.76 1594.03 1175.75 1594.03C1171.55 1594.03 1168 1595.48 1165.11 1598.37C1162.22 1601.22 1160.77 1604.95 1160.77 1609.57C1160.77 1614.14 1162.22 1617.85 1165.11 1620.7C1168 1623.55 1171.55 1624.97 1175.75 1624.97C1177.94 1624.97 1180.09 1624.53 1182.19 1623.64C1184.29 1622.75 1186.04 1621.52 1187.44 1619.93L1188.98 1622.38C1187.49 1624.06 1185.55 1625.39 1183.17 1626.37C1180.84 1627.35 1178.36 1627.84 1175.75 1627.84C1170.66 1627.84 1166.37 1626.16 1162.87 1622.8ZM1194.67 1609.57C1194.67 1603.88 1196.33 1599.4 1199.64 1596.13C1202.96 1592.82 1206.97 1591.16 1211.68 1591.16C1216.21 1591.16 1219.71 1592.7 1222.18 1595.78C1224.7 1598.81 1225.96 1602.59 1225.96 1607.12C1225.96 1607.54 1225.92 1608.17 1225.82 1609.01H1197.75C1197.75 1613.91 1199.18 1617.81 1202.02 1620.7C1204.92 1623.55 1208.49 1624.97 1212.73 1624.97C1217.03 1624.97 1220.64 1623.5 1223.58 1620.56L1225.19 1623.01C1223.65 1624.46 1221.74 1625.62 1219.45 1626.51C1217.21 1627.4 1214.97 1627.84 1212.73 1627.84C1207.65 1627.84 1203.35 1626.16 1199.85 1622.8C1196.4 1619.39 1194.67 1614.98 1194.67 1609.57ZM1197.96 1606.28H1222.88C1222.7 1602.22 1221.55 1599.14 1219.45 1597.04C1217.35 1594.94 1214.74 1593.89 1211.61 1593.89C1208.21 1593.89 1205.22 1594.99 1202.65 1597.18C1200.13 1599.33 1198.57 1602.36 1197.96 1606.28ZM1214.41 1583.11V1578H1217.63V1583.11H1214.41ZM1204.82 1583.11V1578H1208.04V1583.11H1204.82ZM1253.04 1627V1592H1281.11V1627H1278.17V1594.73H1255.98V1627H1253.04ZM1290.78 1609.29C1290.78 1604.2 1292.53 1599.91 1296.03 1596.41C1299.58 1592.91 1303.87 1591.16 1308.91 1591.16C1313.95 1591.16 1318.22 1592.91 1321.72 1596.41C1325.27 1599.91 1327.04 1604.2 1327.04 1609.29C1327.04 1614.47 1325.27 1618.86 1321.72 1622.45C1318.22 1626.04 1313.95 1627.84 1308.91 1627.84C1303.87 1627.84 1299.58 1626.04 1296.03 1622.45C1292.53 1618.86 1290.78 1614.47 1290.78 1609.29ZM1293.86 1609.29C1293.86 1613.72 1295.31 1617.46 1298.2 1620.49C1301.14 1623.48 1304.71 1624.97 1308.91 1624.97C1313.11 1624.97 1316.66 1623.48 1319.55 1620.49C1322.49 1617.46 1323.96 1613.72 1323.96 1609.29C1323.96 1605 1322.49 1601.38 1319.55 1598.44C1316.66 1595.5 1313.11 1594.03 1308.91 1594.03C1304.71 1594.03 1301.14 1595.5 1298.2 1598.44C1295.31 1601.38 1293.86 1605 1293.86 1609.29ZM1345.88 1613.7C1338.09 1613.7 1334.19 1610.08 1334.19 1602.85V1592H1337.13V1602.85C1337.13 1605.23 1337.72 1607.17 1338.88 1608.66C1340.05 1610.11 1342.38 1610.83 1345.88 1610.83C1349.43 1610.83 1352.63 1609.78 1355.47 1607.68V1592H1358.41V1627H1355.47V1613.07L1355.61 1610.69H1355.47C1354.26 1611.53 1352.72 1612.25 1350.85 1612.86C1348.99 1613.42 1347.33 1613.7 1345.88 1613.7ZM1370.62 1627V1592H1373.56V1616.92L1373.35 1622.59H1373.49C1375.12 1620.26 1376.45 1618.37 1377.48 1616.92L1396.59 1592H1399.32V1627H1396.38V1602.01L1396.59 1596.55H1396.45C1394.82 1598.74 1393.49 1600.56 1392.46 1602.01L1373.35 1627H1370.62ZM1411.5 1627V1592H1414.44V1607.61H1437.33V1592H1440.27V1627H1437.33V1610.34H1414.44V1627H1411.5ZM1452.45 1627V1592H1455.39V1616.92L1455.18 1622.59H1455.32C1456.95 1620.26 1458.28 1618.37 1459.31 1616.92L1478.42 1592H1481.15V1627H1478.21V1602.01L1478.42 1596.55H1478.28C1476.64 1598.74 1475.31 1600.56 1474.29 1602.01L1455.18 1627H1452.45ZM1491.99 1627L1494.79 1592H1497.59L1509.42 1615.17L1511.8 1620.28H1511.94C1512.74 1618.41 1513.53 1616.71 1514.32 1615.17L1526.22 1592H1529.02L1531.82 1627H1528.88L1526.92 1602.71L1526.85 1596.69H1526.71C1526.25 1598 1525.48 1599.68 1524.4 1601.73L1513.41 1623.15H1510.4L1499.41 1601.87L1497.1 1596.69H1496.96C1497.01 1599.58 1496.99 1601.59 1496.89 1602.71L1494.93 1627H1491.99ZM1543.8 1614.75V1578H1546.81V1614.75H1543.8ZM1543.31 1627V1622.73H1547.44V1627H1543.31Z" fill="white"/>
</svg>
