<svg width="679" height="216" viewBox="0 0 679 216" fill="none" xmlns="http://www.w3.org/2000/svg">
<g filter="url(#filter0_f_53_229)">
<rect x="37" y="37" width="605" height="142" rx="20" fill="#2F2E84"/>
</g>
<rect x="37" y="37" width="605" height="142" rx="20" fill="#2F2E84"/>
<path d="M89.03 118V96.91H105.11V118H103.04V98.77H91.1V118H89.03ZM109.265 110.38C109.265 108.16 110.035 106.3 111.575 104.8C113.115 103.3 114.995 102.55 117.215 102.55C119.435 102.55 121.315 103.3 122.855 104.8C124.415 106.3 125.195 108.16 125.195 110.38C125.195 112.64 124.415 114.54 122.855 116.08C121.315 117.6 119.435 118.36 117.215 118.36C114.995 118.36 113.115 117.6 111.575 116.08C110.035 114.54 109.265 112.64 109.265 110.38ZM111.365 110.38C111.365 112.14 111.925 113.6 113.045 114.76C114.185 115.92 115.575 116.5 117.215 116.5C118.855 116.5 120.245 115.92 121.385 114.76C122.525 113.6 123.095 112.14 123.095 110.38C123.095 108.68 122.525 107.26 121.385 106.12C120.245 104.96 118.855 104.38 117.215 104.38C115.575 104.38 114.185 104.96 113.045 106.12C111.925 107.26 111.365 108.68 111.365 110.38ZM127.986 110.47C127.986 108.17 128.746 106.28 130.266 104.8C131.786 103.3 133.666 102.55 135.906 102.55C136.946 102.55 137.966 102.74 138.966 103.12C139.966 103.48 140.786 104.01 141.426 104.71L140.376 106.24C139.836 105.68 139.166 105.23 138.366 104.89C137.586 104.55 136.786 104.38 135.966 104.38C134.286 104.38 132.886 104.95 131.766 106.09C130.646 107.23 130.086 108.69 130.086 110.47C130.086 112.23 130.646 113.68 131.766 114.82C132.906 115.94 134.326 116.5 136.026 116.5C136.906 116.5 137.786 116.32 138.666 115.96C139.546 115.58 140.276 115.07 140.856 114.43L141.786 115.96C141.126 116.7 140.266 117.29 139.206 117.73C138.166 118.15 137.066 118.36 135.906 118.36C133.646 118.36 131.756 117.63 130.236 116.17C128.736 114.69 127.986 112.79 127.986 110.47ZM144.696 118L145.926 102.91H148.086L152.616 112.21L153.546 114.34H153.606C153.926 113.56 154.236 112.85 154.536 112.21L159.096 102.91H161.226L162.486 118H160.476L159.726 108.25V105.64H159.666C159.446 106.28 159.126 107.01 158.706 107.83L154.506 116.26H152.646L148.476 107.89L147.486 105.64H147.426C147.466 106.84 147.466 107.71 147.426 108.25L146.676 118H144.696ZM165.75 110.38C165.75 108.16 166.52 106.3 168.06 104.8C169.6 103.3 171.48 102.55 173.7 102.55C175.92 102.55 177.8 103.3 179.34 104.8C180.9 106.3 181.68 108.16 181.68 110.38C181.68 112.64 180.9 114.54 179.34 116.08C177.8 117.6 175.92 118.36 173.7 118.36C171.48 118.36 169.6 117.6 168.06 116.08C166.52 114.54 165.75 112.64 165.75 110.38ZM167.85 110.38C167.85 112.14 168.41 113.6 169.53 114.76C170.67 115.92 172.06 116.5 173.7 116.5C175.34 116.5 176.73 115.92 177.87 114.76C179.01 113.6 179.58 112.14 179.58 110.38C179.58 108.68 179.01 107.26 177.87 106.12C176.73 104.96 175.34 104.38 173.7 104.38C172.06 104.38 170.67 104.96 169.53 106.12C168.41 107.26 167.85 108.68 167.85 110.38ZM188.596 118V104.71H183.106V102.91H196.156V104.71H190.636V118H188.596ZM199.289 124V102.91H201.239V104.5L201.149 105.67H201.209C201.669 104.69 202.359 103.93 203.279 103.39C204.219 102.83 205.279 102.55 206.459 102.55C208.479 102.55 210.079 103.28 211.259 104.74C212.439 106.18 213.029 108.08 213.029 110.44C213.029 112.82 212.399 114.74 211.139 116.2C209.879 117.64 208.259 118.36 206.279 118.36C205.219 118.36 204.249 118.1 203.369 117.58C202.489 117.04 201.799 116.3 201.299 115.36H201.239C201.299 115.72 201.329 116.16 201.329 116.68V124H199.289ZM201.269 110.5C201.269 112.12 201.699 113.53 202.559 114.73C203.439 115.93 204.609 116.53 206.069 116.53C207.449 116.53 208.609 115.99 209.549 114.91C210.489 113.81 210.959 112.33 210.959 110.47C210.959 108.65 210.509 107.19 209.609 106.09C208.729 104.97 207.579 104.41 206.159 104.41C204.779 104.41 203.619 104.92 202.679 105.94C201.739 106.96 201.269 108.48 201.269 110.5ZM215.935 110.47C215.935 108.07 216.645 106.15 218.065 104.71C219.505 103.27 221.285 102.55 223.405 102.55C225.405 102.55 226.955 103.22 228.055 104.56C229.155 105.88 229.705 107.53 229.705 109.51C229.705 109.75 229.685 110.09 229.645 110.53H218.065C218.105 112.39 218.685 113.85 219.805 114.91C220.925 115.97 222.295 116.5 223.915 116.5C225.655 116.5 227.185 115.9 228.505 114.7L229.435 116.26C228.735 116.9 227.875 117.41 226.855 117.79C225.855 118.17 224.855 118.36 223.855 118.36C221.595 118.36 219.705 117.62 218.185 116.14C216.685 114.66 215.935 112.77 215.935 110.47ZM218.155 108.91H227.635C227.575 107.41 227.145 106.26 226.345 105.46C225.545 104.64 224.545 104.23 223.345 104.23C222.045 104.23 220.915 104.64 219.955 105.46C218.995 106.28 218.395 107.43 218.155 108.91ZM237.082 118V104.71H231.592V102.91H244.642V104.71H239.122V118H237.082ZM247.776 118V102.91H249.816V108.67H253.086C254.606 108.67 255.866 109.04 256.866 109.78C257.866 110.52 258.366 111.72 258.366 113.38C258.366 114.8 257.916 115.93 257.016 116.77C256.116 117.59 254.786 118 253.026 118H247.776ZM249.816 116.38H252.846C255.126 116.38 256.266 115.37 256.266 113.35C256.266 112.39 255.986 111.64 255.426 111.1C254.866 110.56 254.016 110.29 252.876 110.29H249.816V116.38ZM269.309 124V102.91H271.259V104.5L271.169 105.67H271.229C271.689 104.69 272.379 103.93 273.299 103.39C274.239 102.83 275.299 102.55 276.479 102.55C278.499 102.55 280.099 103.28 281.279 104.74C282.459 106.18 283.049 108.08 283.049 110.44C283.049 112.82 282.419 114.74 281.159 116.2C279.899 117.64 278.279 118.36 276.299 118.36C275.239 118.36 274.269 118.1 273.389 117.58C272.509 117.04 271.819 116.3 271.319 115.36H271.259C271.319 115.72 271.349 116.16 271.349 116.68V124H269.309ZM271.289 110.5C271.289 112.12 271.719 113.53 272.579 114.73C273.459 115.93 274.629 116.53 276.089 116.53C277.469 116.53 278.629 115.99 279.569 114.91C280.509 113.81 280.979 112.33 280.979 110.47C280.979 108.65 280.529 107.19 279.629 106.09C278.749 104.97 277.599 104.41 276.179 104.41C274.799 104.41 273.639 104.92 272.699 105.94C271.759 106.96 271.289 108.48 271.289 110.5ZM285.655 113.95C285.655 110.45 288.715 108.7 294.835 108.7H295.735V108.28C295.735 105.68 294.495 104.38 292.015 104.38C290.475 104.38 289.045 104.86 287.725 105.82L286.795 104.26C287.395 103.74 288.185 103.33 289.165 103.03C290.145 102.71 291.135 102.55 292.135 102.55C293.955 102.55 295.345 103.05 296.305 104.05C297.285 105.03 297.775 106.46 297.775 108.34V118H295.825V116.23L295.915 114.97H295.855C295.435 115.93 294.765 116.74 293.845 117.4C292.945 118.04 291.915 118.36 290.755 118.36C289.375 118.36 288.175 117.97 287.155 117.19C286.155 116.41 285.655 115.33 285.655 113.95ZM287.725 113.77C287.725 114.53 288.025 115.2 288.625 115.78C289.225 116.36 290.055 116.65 291.115 116.65C292.495 116.65 293.605 116.07 294.445 114.91C295.305 113.75 295.735 112.45 295.735 111.01V110.32H294.865C294.225 110.32 293.665 110.33 293.185 110.35C292.725 110.37 292.115 110.45 291.355 110.59C290.615 110.71 290.005 110.88 289.525 111.1C289.045 111.32 288.625 111.66 288.265 112.12C287.905 112.58 287.725 113.13 287.725 113.77ZM301.813 109.45C301.813 106.73 302.253 104.54 303.133 102.88C304.013 101.22 305.643 99.85 308.023 98.77L313.603 96.16L314.353 97.87L308.533 100.54C306.873 101.32 305.673 102.26 304.933 103.36C304.213 104.46 303.803 105.84 303.703 107.5H303.763C304.943 105.38 306.823 104.32 309.403 104.32C311.283 104.32 312.813 104.95 313.993 106.21C315.193 107.45 315.793 109.14 315.793 111.28C315.793 113.36 315.153 115.06 313.873 116.38C312.593 117.7 310.943 118.36 308.923 118.36C306.543 118.36 304.763 117.55 303.583 115.93C302.403 114.31 301.813 112.15 301.813 109.45ZM304.033 111.25C304.033 112.87 304.493 114.16 305.413 115.12C306.333 116.08 307.483 116.56 308.863 116.56C310.243 116.56 311.393 116.09 312.313 115.15C313.233 114.19 313.693 112.91 313.693 111.31C313.693 109.69 313.233 108.41 312.313 107.47C311.413 106.51 310.303 106.03 308.983 106.03C307.523 106.03 306.333 106.53 305.413 107.53C304.493 108.53 304.033 109.77 304.033 111.25ZM318.738 110.38C318.738 108.16 319.508 106.3 321.048 104.8C322.588 103.3 324.468 102.55 326.688 102.55C328.908 102.55 330.788 103.3 332.328 104.8C333.888 106.3 334.668 108.16 334.668 110.38C334.668 112.64 333.888 114.54 332.328 116.08C330.788 117.6 328.908 118.36 326.688 118.36C324.468 118.36 322.588 117.6 321.048 116.08C319.508 114.54 318.738 112.64 318.738 110.38ZM320.838 110.38C320.838 112.14 321.398 113.6 322.518 114.76C323.658 115.92 325.048 116.5 326.688 116.5C328.328 116.5 329.718 115.92 330.858 114.76C331.998 113.6 332.568 112.14 332.568 110.38C332.568 108.68 331.998 107.26 330.858 106.12C329.718 104.96 328.328 104.38 326.688 104.38C325.048 104.38 323.658 104.96 322.518 106.12C321.398 107.26 320.838 108.68 320.838 110.38ZM341.584 118V104.71H336.094V102.91H349.144V104.71H343.624V118H341.584ZM351.198 121.78C351.758 122.24 352.358 122.47 352.998 122.47C354.198 122.47 355.158 121.65 355.878 120.01L356.778 117.85L350.508 102.91H352.758L357.168 113.92L357.738 115.51H357.798C357.938 114.95 358.108 114.42 358.308 113.92L362.658 102.91H364.848L357.408 121.15C357.008 122.13 356.428 122.9 355.668 123.46C354.928 124.02 354.068 124.3 353.088 124.3C352.628 124.3 352.168 124.22 351.708 124.06C351.268 123.92 350.948 123.78 350.748 123.64L350.418 123.4L351.198 121.78ZM375.569 118V102.91H377.609V116.2H385.949V102.91H388.019V116.2H390.119V121.6H388.199V118H375.569ZM392.244 110.47C392.244 108.07 392.954 106.15 394.374 104.71C395.814 103.27 397.594 102.55 399.714 102.55C401.714 102.55 403.264 103.22 404.364 104.56C405.464 105.88 406.014 107.53 406.014 109.51C406.014 109.75 405.994 110.09 405.954 110.53H394.374C394.414 112.39 394.994 113.85 396.114 114.91C397.234 115.97 398.604 116.5 400.224 116.5C401.964 116.5 403.494 115.9 404.814 114.7L405.744 116.26C405.044 116.9 404.184 117.41 403.164 117.79C402.164 118.17 401.164 118.36 400.164 118.36C397.904 118.36 396.014 117.62 394.494 116.14C392.994 114.66 392.244 112.77 392.244 110.47ZM394.464 108.91H403.944C403.884 107.41 403.454 106.26 402.654 105.46C401.854 104.64 400.854 104.23 399.654 104.23C398.354 104.23 397.224 104.64 396.264 105.46C395.304 106.28 394.704 107.43 394.464 108.91ZM409.846 118V102.91H411.886V109.36H420.706V102.91H422.746V118H420.706V111.16H411.886V118H409.846ZM431.35 118V104.71H425.86V102.91H438.91V104.71H433.39V118H431.35ZM442.043 124V102.91H443.993V104.5L443.903 105.67H443.963C444.423 104.69 445.113 103.93 446.033 103.39C446.973 102.83 448.033 102.55 449.213 102.55C451.233 102.55 452.833 103.28 454.013 104.74C455.193 106.18 455.783 108.08 455.783 110.44C455.783 112.82 455.153 114.74 453.893 116.2C452.633 117.64 451.013 118.36 449.033 118.36C447.973 118.36 447.003 118.1 446.123 117.58C445.243 117.04 444.553 116.3 444.053 115.36H443.993C444.053 115.72 444.083 116.16 444.083 116.68V124H442.043ZM444.023 110.5C444.023 112.12 444.453 113.53 445.313 114.73C446.193 115.93 447.363 116.53 448.823 116.53C450.203 116.53 451.363 115.99 452.303 114.91C453.243 113.81 453.713 112.33 453.713 110.47C453.713 108.65 453.263 107.19 452.363 106.09C451.483 104.97 450.333 104.41 448.913 104.41C447.533 104.41 446.373 104.92 445.433 105.94C444.493 106.96 444.023 108.48 444.023 110.5ZM458.389 113.95C458.389 110.45 461.449 108.7 467.569 108.7H468.469V108.28C468.469 105.68 467.229 104.38 464.749 104.38C463.209 104.38 461.779 104.86 460.459 105.82L459.529 104.26C460.129 103.74 460.919 103.33 461.899 103.03C462.879 102.71 463.869 102.55 464.869 102.55C466.689 102.55 468.079 103.05 469.039 104.05C470.019 105.03 470.509 106.46 470.509 108.34V118H468.559V116.23L468.649 114.97H468.589C468.169 115.93 467.499 116.74 466.579 117.4C465.679 118.04 464.649 118.36 463.489 118.36C462.109 118.36 460.909 117.97 459.889 117.19C458.889 116.41 458.389 115.33 458.389 113.95ZM460.459 113.77C460.459 114.53 460.759 115.2 461.359 115.78C461.959 116.36 462.789 116.65 463.849 116.65C465.229 116.65 466.339 116.07 467.179 114.91C468.039 113.75 468.469 112.45 468.469 111.01V110.32H467.599C466.959 110.32 466.399 110.33 465.919 110.35C465.459 110.37 464.849 110.45 464.089 110.59C463.349 110.71 462.739 110.88 462.259 111.1C461.779 111.32 461.359 111.66 460.999 112.12C460.639 112.58 460.459 113.13 460.459 113.77ZM482.707 118V102.91H484.687V112.81C484.687 114.19 484.657 114.94 484.597 115.06H484.657C484.737 114.92 485.257 114.17 486.217 112.81L493.627 102.91H495.577V118H493.567V108.07C493.567 107.81 493.567 107.51 493.567 107.17C493.587 106.83 493.607 106.54 493.627 106.3C493.647 106.04 493.657 105.9 493.657 105.88H493.597C493.597 105.92 493.507 106.06 493.327 106.3C493.167 106.54 492.947 106.84 492.667 107.2C492.407 107.56 492.207 107.85 492.067 108.07L484.657 118H482.707ZM498.902 116.17L499.982 114.76C501.162 116 502.512 116.62 504.032 116.62C505.032 116.62 505.882 116.37 506.582 115.87C507.302 115.35 507.662 114.62 507.662 113.68C507.662 111.9 506.442 111.01 504.002 111.01H502.172V109.39H503.762C504.822 109.39 505.642 109.18 506.222 108.76C506.822 108.32 507.122 107.68 507.122 106.84C507.122 106 506.842 105.37 506.282 104.95C505.722 104.51 504.962 104.29 504.002 104.29C502.682 104.29 501.452 104.74 500.312 105.64L499.412 104.2C500.732 103.1 502.362 102.55 504.302 102.55C505.762 102.55 506.942 102.9 507.842 103.6C508.762 104.3 509.222 105.3 509.222 106.6C509.222 108.3 508.452 109.45 506.912 110.05V110.11C507.772 110.33 508.462 110.75 508.982 111.37C509.502 111.99 509.762 112.78 509.762 113.74C509.762 115.2 509.212 116.34 508.112 117.16C507.032 117.96 505.712 118.36 504.152 118.36C502.152 118.36 500.402 117.63 498.902 116.17ZM513.616 118V102.91H515.656V109.36H524.476V102.91H526.516V118H524.476V111.16H515.656V118H513.616ZM530.289 121.78C530.849 122.24 531.449 122.47 532.089 122.47C533.289 122.47 534.249 121.65 534.969 120.01L535.869 117.85L529.599 102.91H531.849L536.259 113.92L536.829 115.51H536.889C537.029 114.95 537.199 114.42 537.399 113.92L541.749 102.91H543.939L536.499 121.15C536.099 122.13 535.519 122.9 534.759 123.46C534.019 124.02 533.159 124.3 532.179 124.3C531.719 124.3 531.259 124.22 530.799 124.06C530.359 123.92 530.039 123.78 529.839 123.64L529.509 123.4L530.289 121.78ZM550.91 118V104.71H545.42V102.91H558.47V104.71H552.95V118H550.91ZM561.604 124V102.91H563.554V104.5L563.464 105.67H563.524C563.984 104.69 564.674 103.93 565.594 103.39C566.534 102.83 567.594 102.55 568.774 102.55C570.794 102.55 572.394 103.28 573.574 104.74C574.754 106.18 575.344 108.08 575.344 110.44C575.344 112.82 574.714 114.74 573.454 116.2C572.194 117.64 570.574 118.36 568.594 118.36C567.534 118.36 566.564 118.1 565.684 117.58C564.804 117.04 564.114 116.3 563.614 115.36H563.554C563.614 115.72 563.644 116.16 563.644 116.68V124H561.604ZM563.584 110.5C563.584 112.12 564.014 113.53 564.874 114.73C565.754 115.93 566.924 116.53 568.384 116.53C569.764 116.53 570.924 115.99 571.864 114.91C572.804 113.81 573.274 112.33 573.274 110.47C573.274 108.65 572.824 107.19 571.924 106.09C571.044 104.97 569.894 104.41 568.474 104.41C567.094 104.41 565.934 104.92 564.994 105.94C564.054 106.96 563.584 108.48 563.584 110.5ZM579.27 118V102.91H581.25V112.81C581.25 114.19 581.22 114.94 581.16 115.06H581.22C581.3 114.92 581.82 114.17 582.78 112.81L590.19 102.91H592.14V118H590.13V108.07C590.13 107.81 590.13 107.51 590.13 107.17C590.15 106.83 590.17 106.54 590.19 106.3C590.21 106.04 590.22 105.9 590.22 105.88H590.16C590.16 105.92 590.07 106.06 589.89 106.3C589.73 106.54 589.51 106.84 589.23 107.2C588.97 107.56 588.77 107.85 588.63 108.07L581.22 118H579.27Z" fill="white"/>
<defs>
<filter id="filter0_f_53_229" x="0.900002" y="0.900002" width="677.2" height="214.2" filterUnits="userSpaceOnUse" color-interpolation-filters="sRGB">
<feFlood flood-opacity="0" result="BackgroundImageFix"/>
<feBlend mode="normal" in="SourceGraphic" in2="BackgroundImageFix" result="shape"/>
<feGaussianBlur stdDeviation="18.05" result="effect1_foregroundBlur_53_229"/>
</filter>
</defs>
</svg>
