<svg width="679" height="216" viewBox="0 0 679 216" fill="none" xmlns="http://www.w3.org/2000/svg">
<g filter="url(#filter0_f_62_368)">
<rect x="37" y="37" width="605" height="142" rx="20" fill="#2F2E84"/>
</g>
<rect x="37" y="37" width="605" height="142" rx="20" fill="#2F2E84"/>
<path d="M201.03 118V96.91H217.11V118H215.04V98.77H203.1V118H201.03ZM221.265 110.38C221.265 108.16 222.035 106.3 223.575 104.8C225.115 103.3 226.995 102.55 229.215 102.55C231.435 102.55 233.315 103.3 234.855 104.8C236.415 106.3 237.195 108.16 237.195 110.38C237.195 112.64 236.415 114.54 234.855 116.08C233.315 117.6 231.435 118.36 229.215 118.36C226.995 118.36 225.115 117.6 223.575 116.08C222.035 114.54 221.265 112.64 221.265 110.38ZM223.365 110.38C223.365 112.14 223.925 113.6 225.045 114.76C226.185 115.92 227.575 116.5 229.215 116.5C230.855 116.5 232.245 115.92 233.385 114.76C234.525 113.6 235.095 112.14 235.095 110.38C235.095 108.68 234.525 107.26 233.385 106.12C232.245 104.96 230.855 104.38 229.215 104.38C227.575 104.38 226.185 104.96 225.045 106.12C223.925 107.26 223.365 108.68 223.365 110.38ZM241.006 118V102.91H243.046V109.3H245.446L249.976 102.91H252.376L247.126 110.08V110.14L252.976 118H250.486L245.476 111.1H243.046V118H241.006ZM254.364 113.95C254.364 110.45 257.424 108.7 263.544 108.7H264.444V108.28C264.444 105.68 263.204 104.38 260.724 104.38C259.184 104.38 257.754 104.86 256.434 105.82L255.504 104.26C256.104 103.74 256.894 103.33 257.874 103.03C258.854 102.71 259.844 102.55 260.844 102.55C262.664 102.55 264.054 103.05 265.014 104.05C265.994 105.03 266.484 106.46 266.484 108.34V118H264.534V116.23L264.624 114.97H264.564C264.144 115.93 263.474 116.74 262.554 117.4C261.654 118.04 260.624 118.36 259.464 118.36C258.084 118.36 256.884 117.97 255.864 117.19C254.864 116.41 254.364 115.33 254.364 113.95ZM256.434 113.77C256.434 114.53 256.734 115.2 257.334 115.78C257.934 116.36 258.764 116.65 259.824 116.65C261.204 116.65 262.314 116.07 263.154 114.91C264.014 113.75 264.444 112.45 264.444 111.01V110.32H263.574C262.934 110.32 262.374 110.33 261.894 110.35C261.434 110.37 260.824 110.45 260.064 110.59C259.324 110.71 258.714 110.88 258.234 111.1C257.754 111.32 257.334 111.66 256.974 112.12C256.614 112.58 256.434 113.13 256.434 113.77ZM269.652 116.17L270.732 114.76C271.912 116 273.262 116.62 274.782 116.62C275.782 116.62 276.632 116.37 277.332 115.87C278.052 115.35 278.412 114.62 278.412 113.68C278.412 111.9 277.192 111.01 274.752 111.01H272.922V109.39H274.512C275.572 109.39 276.392 109.18 276.972 108.76C277.572 108.32 277.872 107.68 277.872 106.84C277.872 106 277.592 105.37 277.032 104.95C276.472 104.51 275.712 104.29 274.752 104.29C273.432 104.29 272.202 104.74 271.062 105.64L270.162 104.2C271.482 103.1 273.112 102.55 275.052 102.55C276.512 102.55 277.692 102.9 278.592 103.6C279.512 104.3 279.972 105.3 279.972 106.6C279.972 108.3 279.202 109.45 277.662 110.05V110.11C278.522 110.33 279.212 110.75 279.732 111.37C280.252 111.99 280.512 112.78 280.512 113.74C280.512 115.2 279.962 116.34 278.862 117.16C277.782 117.96 276.462 118.36 274.902 118.36C272.902 118.36 271.152 117.63 269.652 116.17ZM283.046 113.95C283.046 110.45 286.106 108.7 292.226 108.7H293.126V108.28C293.126 105.68 291.886 104.38 289.406 104.38C287.866 104.38 286.436 104.86 285.116 105.82L284.186 104.26C284.786 103.74 285.576 103.33 286.556 103.03C287.536 102.71 288.526 102.55 289.526 102.55C291.346 102.55 292.736 103.05 293.696 104.05C294.676 105.03 295.166 106.46 295.166 108.34V118H293.216V116.23L293.306 114.97H293.246C292.826 115.93 292.156 116.74 291.236 117.4C290.336 118.04 289.306 118.36 288.146 118.36C286.766 118.36 285.566 117.97 284.546 117.19C283.546 116.41 283.046 115.33 283.046 113.95ZM285.116 113.77C285.116 114.53 285.416 115.2 286.016 115.78C286.616 116.36 287.446 116.65 288.506 116.65C289.886 116.65 290.996 116.07 291.836 114.91C292.696 113.75 293.126 112.45 293.126 111.01V110.32H292.256C291.616 110.32 291.056 110.33 290.576 110.35C290.116 110.37 289.506 110.45 288.746 110.59C288.006 110.71 287.396 110.88 286.916 111.1C286.436 111.32 286.016 111.66 285.656 112.12C285.296 112.58 285.116 113.13 285.116 113.77ZM303.35 118V104.71H297.86V102.91H310.91V104.71H305.39V118H303.35ZM314.043 118V102.91H316.083V108.67H319.353C320.873 108.67 322.133 109.04 323.133 109.78C324.133 110.52 324.633 111.72 324.633 113.38C324.633 114.8 324.183 115.93 323.283 116.77C322.383 117.59 321.053 118 319.293 118H314.043ZM316.083 116.38H319.113C321.393 116.38 322.533 115.37 322.533 113.35C322.533 112.39 322.253 111.64 321.693 111.1C321.133 110.56 320.283 110.29 319.143 110.29H316.083V116.38ZM335.576 124V102.91H337.526V104.5L337.436 105.67H337.496C337.956 104.69 338.646 103.93 339.566 103.39C340.506 102.83 341.566 102.55 342.746 102.55C344.766 102.55 346.366 103.28 347.546 104.74C348.726 106.18 349.316 108.08 349.316 110.44C349.316 112.82 348.686 114.74 347.426 116.2C346.166 117.64 344.546 118.36 342.566 118.36C341.506 118.36 340.536 118.1 339.656 117.58C338.776 117.04 338.086 116.3 337.586 115.36H337.526C337.586 115.72 337.616 116.16 337.616 116.68V124H335.576ZM337.556 110.5C337.556 112.12 337.986 113.53 338.846 114.73C339.726 115.93 340.896 116.53 342.356 116.53C343.736 116.53 344.896 115.99 345.836 114.91C346.776 113.81 347.246 112.33 347.246 110.47C347.246 108.65 346.796 107.19 345.896 106.09C345.016 104.97 343.866 104.41 342.446 104.41C341.066 104.41 339.906 104.92 338.966 105.94C338.026 106.96 337.556 108.48 337.556 110.5ZM352.223 110.47C352.223 108.07 352.933 106.15 354.353 104.71C355.793 103.27 357.573 102.55 359.693 102.55C361.693 102.55 363.243 103.22 364.343 104.56C365.443 105.88 365.993 107.53 365.993 109.51C365.993 109.75 365.973 110.09 365.933 110.53H354.353C354.393 112.39 354.973 113.85 356.093 114.91C357.213 115.97 358.583 116.5 360.203 116.5C361.943 116.5 363.473 115.9 364.793 114.7L365.723 116.26C365.023 116.9 364.163 117.41 363.143 117.79C362.143 118.17 361.143 118.36 360.143 118.36C357.883 118.36 355.993 117.62 354.473 116.14C352.973 114.66 352.223 112.77 352.223 110.47ZM354.443 108.91H363.923C363.863 107.41 363.433 106.26 362.633 105.46C361.833 104.64 360.833 104.23 359.632 104.23C358.333 104.23 357.203 104.64 356.243 105.46C355.283 106.28 354.683 107.43 354.443 108.91ZM369.825 118V102.91H371.865V109.3H374.265L378.795 102.91H381.195L375.945 110.08V110.14L381.795 118H379.305L374.295 111.1H371.865V118H369.825ZM384.678 118V102.91H390.138C391.698 102.91 392.918 103.25 393.798 103.93C394.678 104.59 395.118 105.53 395.118 106.75C395.118 108.41 394.358 109.52 392.838 110.08V110.14C393.798 110.34 394.548 110.77 395.088 111.43C395.628 112.09 395.898 112.87 395.898 113.77C395.898 115.07 395.408 116.1 394.428 116.86C393.468 117.62 392.138 118 390.438 118H384.678ZM386.718 109.45H389.928C390.928 109.45 391.688 109.23 392.208 108.79C392.748 108.33 393.018 107.69 393.018 106.87C393.018 105.27 391.948 104.47 389.808 104.47H386.718V109.45ZM386.718 116.41H390.168C391.388 116.41 392.298 116.18 392.898 115.72C393.498 115.24 393.798 114.58 393.798 113.74C393.798 112.86 393.478 112.19 392.838 111.73C392.218 111.25 391.318 111.01 390.138 111.01H386.718V116.41ZM399.766 118V102.91H401.746V112.81C401.746 114.19 401.716 114.94 401.656 115.06H401.716C401.796 114.92 402.316 114.17 403.276 112.81L410.686 102.91H412.636V118H410.626V108.07C410.626 107.81 410.626 107.51 410.626 107.17C410.646 106.83 410.666 106.54 410.686 106.3C410.706 106.04 410.716 105.9 410.716 105.88H410.656C410.656 105.92 410.566 106.06 410.386 106.3C410.226 106.54 410.006 106.84 409.726 107.2C409.466 107.56 409.266 107.85 409.126 108.07L401.716 118H399.766ZM415.961 116.17L417.041 114.76C418.221 116 419.571 116.62 421.091 116.62C422.091 116.62 422.941 116.37 423.641 115.87C424.361 115.35 424.721 114.62 424.721 113.68C424.721 111.9 423.501 111.01 421.061 111.01H419.231V109.39H420.821C421.881 109.39 422.701 109.18 423.281 108.76C423.881 108.32 424.181 107.68 424.181 106.84C424.181 106 423.901 105.37 423.341 104.95C422.781 104.51 422.021 104.29 421.061 104.29C419.741 104.29 418.511 104.74 417.371 105.64L416.471 104.2C417.791 103.1 419.421 102.55 421.361 102.55C422.821 102.55 424.001 102.9 424.901 103.6C425.821 104.3 426.281 105.3 426.281 106.6C426.281 108.3 425.511 109.45 423.971 110.05V110.11C424.831 110.33 425.521 110.75 426.041 111.37C426.561 111.99 426.821 112.78 426.821 113.74C426.821 115.2 426.271 116.34 425.171 117.16C424.091 117.96 422.771 118.36 421.211 118.36C419.211 118.36 417.461 117.63 415.961 116.17ZM430.674 118V102.91H432.654V112.81C432.654 114.19 432.624 114.94 432.564 115.06H432.624C432.704 114.92 433.224 114.17 434.184 112.81L441.594 102.91H443.544V118H441.534V108.07C441.534 107.81 441.534 107.51 441.534 107.17C441.554 106.83 441.574 106.54 441.594 106.3C441.614 106.04 441.624 105.9 441.624 105.88H441.564C441.564 105.92 441.474 106.06 441.294 106.3C441.134 106.54 440.914 106.84 440.634 107.2C440.374 107.56 440.174 107.85 440.034 108.07L432.624 118H430.674ZM452.149 118V104.71H446.659V102.91H459.709V104.71H454.189V118H452.149ZM475.952 118V102.91H477.992V118H475.952ZM462.842 118V102.91H464.882V108.67H468.122C469.642 108.67 470.902 109.04 471.902 109.78C472.902 110.52 473.402 111.72 473.402 113.38C473.402 114.8 472.952 115.93 472.052 116.77C471.152 117.59 469.822 118 468.062 118H462.842ZM464.882 116.38H467.882C470.162 116.38 471.302 115.37 471.302 113.35C471.302 112.39 471.022 111.64 470.462 111.1C469.902 110.56 469.052 110.29 467.912 110.29H464.882V116.38Z" fill="white"/>
<defs>
<filter id="filter0_f_62_368" x="0.900002" y="0.900002" width="677.2" height="214.2" filterUnits="userSpaceOnUse" color-interpolation-filters="sRGB">
<feFlood flood-opacity="0" result="BackgroundImageFix"/>
<feBlend mode="normal" in="SourceGraphic" in2="BackgroundImageFix" result="shape"/>
<feGaussianBlur stdDeviation="18.05" result="effect1_foregroundBlur_62_368"/>
</filter>
</defs>
</svg>
