<svg width="553" height="553" viewBox="0 0 553 553" fill="none" xmlns="http://www.w3.org/2000/svg">
<rect width="553" height="553" fill="white"/>
<path d="M148.323 452.587C146.007 452.587 143.994 451.76 142.339 450.106C140.685 448.451 139.857 446.466 139.857 444.122V112.195C139.857 109.879 140.685 108.031 142.339 106.708C143.994 105.053 145.979 104.226 148.323 104.226L422.231 103.729C443.491 103.729 463.07 108.39 480.994 117.683C499.249 126.645 513.699 140.102 524.315 158.053C535.263 176.005 540.75 197.597 540.75 222.828C540.75 245.412 535.263 265.846 524.315 284.129C513.368 302.411 498.753 316.695 480.498 326.981C462.243 337.267 442.83 342.423 422.231 342.423L266.346 342.919C264.03 342.919 262.017 343.747 260.362 345.401C258.708 347.056 257.881 349.069 257.881 351.385V444.066C257.881 446.383 257.053 448.396 255.399 450.05C253.744 451.705 251.759 452.532 249.415 452.532H148.323V452.587Z" fill="#201F59"/>
<path d="M524.112 157.833C513.495 139.881 499.046 126.424 480.791 117.462C465.1 109.327 448.141 104.75 429.914 103.729L528.441 275.939C536.493 259.752 540.547 241.993 540.547 222.635C540.547 197.376 535.06 175.784 524.112 157.86V157.833Z" fill="#201F59"/>
<path d="M147.517 103.729C124.767 113.546 31.9207 153.2 37.0497 194.922C42.2063 236.643 133.785 294.387 142.747 276.986C153.998 255.229 145.752 191.971 144.401 179.342C143.05 166.74 147.49 103.729 147.49 103.729H147.517Z" fill="#201F59"/>
<path d="M241.882 141.627H241.854C228.528 141.627 217.726 152.429 217.726 165.755V212.22C217.726 225.546 228.528 236.349 241.854 236.349H241.882C255.208 236.349 266.01 225.546 266.01 212.22V165.755C266.01 152.429 255.208 141.627 241.882 141.627Z" fill="#201F59"/>
<path d="M260.326 156.802H260.299C246.973 156.802 236.17 167.604 236.17 180.93V203.018C236.17 216.344 246.973 227.147 260.299 227.147H260.326C273.652 227.147 284.455 216.344 284.455 203.018V180.93C284.455 167.604 273.652 156.802 260.326 156.802Z" fill="#201F59"/>
<path d="M316.162 141.627H316.134C302.809 141.627 292.006 152.429 292.006 165.755V212.22C292.006 225.546 302.809 236.349 316.134 236.349H316.162C329.488 236.349 340.291 225.546 340.291 212.22V165.755C340.291 152.429 329.488 141.627 316.162 141.627Z" fill="#201F59"/>
<path d="M332.011 156.802H331.983C318.657 156.802 307.854 167.604 307.854 180.93V203.018C307.854 216.344 318.657 227.147 331.983 227.147H332.011C345.337 227.147 356.139 216.344 356.139 203.018V180.93C356.139 167.604 345.337 156.802 332.011 156.802Z" fill="#201F59"/>
<path d="M123.478 449.858C121.162 449.858 119.149 449.031 117.494 447.376C115.84 445.722 115.013 443.736 115.013 441.392V109.466C115.013 107.149 115.84 105.302 117.494 103.978C119.149 102.324 121.134 101.496 123.478 101.496L397.386 101C418.647 101 438.225 105.66 456.149 114.953C474.404 123.915 488.854 137.372 499.471 155.324C510.418 173.275 515.906 194.867 515.906 220.099C515.906 242.683 510.418 263.116 499.471 281.399C488.523 299.682 473.908 313.966 455.653 324.251C437.398 334.537 417.985 339.694 397.386 339.694L241.502 340.19C239.185 340.19 237.172 341.017 235.518 342.672C233.863 344.326 233.036 346.339 233.036 348.656V441.337C233.036 443.653 232.209 445.666 230.554 447.321C228.9 448.975 226.914 449.803 224.57 449.803H123.478V449.858Z" fill="#2F2E84"/>
<path d="M499.267 155.103C488.651 137.151 474.201 123.695 455.946 114.733C440.256 106.598 423.297 102.02 405.069 101L503.597 273.209C511.649 257.022 515.702 239.264 515.702 219.906C515.702 194.646 510.215 173.055 499.267 155.131V155.103Z" fill="white"/>
<path d="M122.672 101C99.9222 110.817 7.07545 150.47 12.2045 192.192C17.3611 233.914 108.939 291.657 117.901 274.257C129.152 252.5 120.907 189.242 119.556 176.612C118.205 164.01 122.644 101 122.644 101H122.672Z" fill="#2F2E84"/>
<path d="M217.133 138.848H217.105C203.779 138.848 192.977 149.651 192.977 162.976V209.441C192.977 222.767 203.779 233.57 217.105 233.57H217.133C230.459 233.57 241.261 222.767 241.261 209.441V162.976C241.261 149.651 230.459 138.848 217.133 138.848Z" fill="white"/>
<path d="M235.481 154.036H235.454C222.128 154.036 211.325 164.839 211.325 178.164V200.252C211.325 213.578 222.128 224.381 235.454 224.381H235.481C248.807 224.381 259.61 213.578 259.61 200.252V178.164C259.61 164.839 248.807 154.036 235.481 154.036Z" fill="#2F2E84"/>
<path d="M291.363 138.848H291.336C278.01 138.848 267.207 149.651 267.207 162.976V209.441C267.207 222.767 278.01 233.57 291.336 233.57H291.363C304.689 233.57 315.492 222.767 315.492 209.441V162.976C315.492 149.651 304.689 138.848 291.363 138.848Z" fill="white"/>
<path d="M307.216 154.036H307.188C293.862 154.036 283.06 164.839 283.06 178.164V200.252C283.06 213.578 293.862 224.381 307.188 224.381H307.216C320.542 224.381 331.344 213.578 331.344 200.252V178.164C331.344 164.839 320.542 154.036 307.216 154.036Z" fill="#2F2E84"/>
</svg>
